{"title":"Mundasupatti (2014) - TC Rip XviD MP3 1CD - Shammu","uid":10362947,"size":745281566,"categoryP":"video","categoryS":"movies","magnet":"?xt=urn:btih:cabb4a5b753effb7a9d8a058f16fbd1c8d414cdf&amp;dn=Mundasupatti+%282014%29+-+TC+Rip+XviD+MP3+1CD+-+Shammu&amp;tr=udp%3A%2F%2Ftracker.openbittorrent.com%3A80&amp;tr=udp%3A%2F%2Fopen.demonii.com%3A1337&amp;tr=udp%3A%2F%2Ftracker.coppersurfer.tk%3A6969&amp;tr=udp%3A%2F%2Fexodus.desync.com%3A6969","seeders":1,"leechers":1,"uploader":"TeamXDN","files":-1,"time":1402790787,"description":"Mundasupatti (2014) - TC Rip XviD MP3 1CD - Shammu\n\nFormat                                   : AVI\nFormat/Info                              : Audio Video Interleave\nFile size                                : 711 MiB\nDuration                                 : 2h 21mn\nOverall bit rate                         : 704 Kbps\n\nVideo\nID                                       : 0\nFormat                                   : MPEG-4 Visual\nFormat profile                           : Advanced Simple@L5\nFormat settings, BVOP                    : 2\nFormat settings, QPel                    : Yes\nFormat settings, GMC                     : No warppoints\nFormat settings, Matrix                  : Default (H.263)\nCodec ID                                 : XVID\nCodec ID/Hint                            : XviD\nDuration                                 : 2h 21mn\nBit rate                                 : 616 Kbps\nWidth                                    : 608 pixels\nHeight                                   : 256 pixels\nDisplay aspect ratio                     : 2.40:1\nFrame rate                               : 29.970 fps\nColor space                              : YUV\nChroma subsampling                       : 4:2:0\nBit depth                                : 8 bits\nScan type                                : Progressive\nCompression mode                         : Lossy\nBits/(Pixel*Frame)                       : 0.132\nStream size                              : 623 MiB (88%)\nWriting library                          : XviD 1.2.1 (UTC 2008-12-04)\n\nAudio\nID                                       : 1\nFormat                                   : MPEG Audio\nFormat version                           : Version 1\nFormat profile                           : Layer 3\nMode                                     : Joint stereo\nMode extension                           : MS Stereo\nCodec ID                                 : 55\nCodec ID/Hint                            : MP3\nDuration                                 : 2h 21mn\nBit rate mode                            : Constant\nBit rate                                 : 80.0 Kbps\nChannel(s)                               : 2 channels\nSampling rate                            : 32.0 KHz\nCompression mode                         : Lossy\nStream size                              : 80.8 MiB (11%)\nAlignment                                : Aligned on interleaves\nInterleave, duration                     : 133 ms (4.00 video frames)\nInterleave, preload duration             : 216 ms\nTitle                                    : VTS_01_1 Tc0 L2 2ch 48 64 DELAY 0ms\nWriting library                          : LAME3.99r\nEncoding settings                        : -m j -V 4 -q 2 -lowpass 13.5 -b 80\n\n","torrent":{"xt":"urn:btih:cabb4a5b753effb7a9d8a058f16fbd1c8d414cdf","amp;dn":"Mundasupatti+%282014%29+-+TC+Rip+XviD+MP3+1CD+-+Shammu","amp;tr":["udp%3A%2F%2Ftracker.openbittorrent.com%3A80","udp%3A%2F%2Fopen.demonii.com%3A1337","udp%3A%2F%2Ftracker.coppersurfer.tk%3A6969","udp%3A%2F%2Fexodus.desync.com%3A6969"],"infoHash":"cabb4a5b753effb7a9d8a058f16fbd1c8d414cdf","infoHashBuffer":{"type":"Buffer","data":[202,187,74,91,117,62,255,183,169,216,160,88,241,111,189,28,141,65,76,223]},"announce":[],"urlList":[]}}